<svg width="105" height="107" viewBox="0 0 105 107" fill="none" xmlns="http://www.w3.org/2000/svg">
<path d="M81.5972 -6.27098C74.8335 0.476124 66.541 9.63125 63.9211 19.9719C62.6136 25.1331 62.7205 30.5859 65.1374 36.1864C67.5555 41.7896 72.2949 47.5628 80.2917 53.347L81.2439 54.0262C101.223 68.0468 119.62 67.5147 133.231 68.165C140.122 68.4942 145.867 69.1274 149.901 72.2063C153.955 75.3008 156.205 80.7991 156.319 90.6559L156.025 90.6478L155.73 90.641C155.617 80.8335 153.374 75.5584 149.539 72.6309C145.683 69.6882 140.142 69.0487 133.222 68.7181C119.641 68.0692 101.055 68.6069 80.9031 54.4656L79.9428 53.7808C71.8833 47.9512 67.0612 42.1009 64.5919 36.3795C62.1216 30.6552 62.0155 25.0812 63.347 19.8253C66.0055 9.33215 74.4001 0.0869057 81.1609 -6.65737L81.5972 -6.27098ZM105.952 -61.2768C99.188 -54.5297 90.8955 -45.3746 88.2756 -35.0339C87.5827 -32.2989 87.2868 -29.482 87.5216 -26.6046C90.4114 -36.7369 98.5272 -45.6568 105.1 -52.2132L105.536 -51.8268C98.7722 -45.0797 90.4798 -35.9245 87.8599 -25.5839C87.8084 -25.3806 87.759 -25.1768 87.7119 -24.9726C87.8466 -24.0841 88.0344 -23.1905 88.2772 -22.292C91.9591 -30.4752 98.5853 -37.6712 104.119 -43.1909L104.554 -42.8041C98.8674 -37.1314 92.1009 -29.7564 88.5328 -21.4061C88.7765 -20.6215 89.0647 -19.834 89.3976 -19.0431C93.131 -25.0799 98.1261 -30.4219 102.453 -34.7383L102.889 -34.3515C98.4701 -29.9438 93.3999 -24.5082 89.6842 -18.3862C89.9551 -17.7873 90.2525 -17.1865 90.578 -16.5841C93.5982 -20.4931 96.9511 -24.0143 99.9777 -27.0335L100.413 -26.6466C97.3278 -23.5688 93.9252 -19.9894 90.8872 -16.0255C91.087 -15.6736 91.2963 -15.321 91.5156 -14.968C93.234 -16.8695 94.9601 -18.6436 96.5918 -20.2713L97.0281 -19.8849C95.3559 -18.2168 93.5895 -16.4021 91.8393 -14.4582C91.8757 -14.4019 91.9128 -14.3459 91.9498 -14.2896C92.0564 -14.3965 92.1616 -14.5037 92.2674 -14.6093L92.7037 -14.2229C92.5626 -14.0821 92.4218 -13.9391 92.2793 -13.7962C95.0067 -9.79285 99.0199 -5.72836 104.646 -1.65882L105.599 -0.980049C125.578 13.0404 143.975 12.5089 157.585 13.1591C164.477 13.4884 170.222 14.1215 174.256 17.2005C178.31 20.295 180.56 25.7932 180.674 35.6501L180.379 35.642L180.085 35.6352C179.972 25.8279 177.729 20.5522 173.894 17.6246C170.038 14.6819 164.496 14.0429 157.577 13.7123C143.995 13.0634 125.41 13.6004 105.258 -0.540638L104.297 -1.22503C98.684 -5.28519 94.6414 -9.35557 91.8702 -13.3854C90.8513 -12.3569 89.8037 -11.278 88.754 -10.15C88.8566 -9.8901 88.9628 -9.62946 89.0753 -9.36894C91.4933 -3.76581 96.2329 2.00756 104.23 7.79166L105.183 8.47043C125.161 22.4908 143.558 21.9594 157.169 22.6096C164.06 22.9389 169.805 23.572 173.839 26.651C177.893 29.7454 180.144 35.2432 180.258 45.1001L179.963 45.0925L179.669 45.0852C179.556 35.2779 177.313 30.0026 173.477 27.0751C169.622 24.1324 164.08 23.4934 157.16 23.1628C143.579 22.5139 124.993 23.0509 104.842 8.90984L103.881 8.22545C95.8212 2.39593 90.9999 -3.45496 88.5306 -9.17631C88.4584 -9.34362 88.388 -9.51106 88.3198 -9.67812C87.6131 -8.91021 86.9055 -8.12141 86.2056 -7.31194C86.4722 -5.02334 87.0796 -2.698 88.0942 -0.346717C90.5123 5.25641 95.2519 11.0298 103.249 16.8139L104.202 17.4927C124.18 31.5131 142.577 30.9816 156.188 31.6318C163.079 31.9611 168.824 32.5942 172.858 35.6732C176.912 38.7677 179.164 44.266 179.277 54.1232L178.982 54.1155L178.688 54.1088C178.575 44.301 176.332 39.0249 172.496 36.0973C168.641 33.1546 163.099 32.5156 156.179 32.185C142.598 31.5361 124.012 32.0732 103.861 17.9321L102.9 17.2477C94.8401 11.4181 90.0188 5.56733 87.5496 -0.154082C86.5951 -2.36595 85.9943 -4.55531 85.6922 -6.71252C85.5957 -6.59894 85.4994 -6.48494 85.4033 -6.37061C85.1428 -5.98889 84.8884 -5.60318 84.6374 -5.21548C84.0233 -0.925082 84.459 3.54142 86.4288 8.1059C88.8469 13.7091 93.5864 19.4824 101.583 25.2665L102.536 25.9453C122.515 39.9658 140.912 39.4342 154.522 40.0845C161.414 40.4137 167.159 41.0469 171.193 44.1258C175.247 47.2203 177.497 52.7192 177.611 62.5763L177.316 62.5673L177.022 62.5605C176.909 52.7532 174.666 47.4775 170.831 44.55C166.975 41.6073 161.433 40.9682 154.514 40.6376C140.932 39.9887 122.347 40.5258 102.195 26.3847L101.234 25.7003C93.1746 19.8707 88.3534 14.02 85.8841 8.29854C84.0635 4.07966 83.527 -0.057274 83.9038 -4.04553C83.4431 -2.84983 83.0486 -1.63595 82.7366 -0.404569C81.429 4.7567 81.5364 10.2102 83.9533 15.8108C86.3714 21.4139 91.1109 27.1873 99.1077 32.9714L100.061 33.6501C120.039 47.6705 138.436 47.1391 152.047 47.7893C158.939 48.1186 164.683 48.7517 168.717 51.8307C172.771 54.9252 175.022 60.423 175.136 70.2798L174.841 70.2722L174.547 70.2649C174.434 60.4573 172.19 55.1815 168.355 52.254C164.499 49.3115 158.958 48.6731 152.038 48.3425C138.457 47.6936 119.871 48.2305 99.7199 34.0896L98.7588 33.4052C90.6991 27.5755 85.8774 21.724 83.4082 16.0026C80.938 10.2784 80.8323 4.70498 82.1638 -0.550763C82.2341 -0.828076 82.3081 -1.10457 82.3863 -1.38011C81.0806 1.1067 80.0273 3.69269 79.352 6.35798C78.0444 11.5192 78.1514 16.972 80.5683 22.5725C82.9863 28.1757 87.7258 33.9489 95.7226 39.7331L96.6748 40.4123C116.654 54.4329 135.051 53.9008 148.662 54.551C155.553 54.8803 161.298 55.5135 165.332 58.5924C169.386 61.6869 171.637 67.1858 171.751 77.0428L171.456 77.0348L171.162 77.028C171.049 67.2204 168.806 61.9441 164.97 59.0165C161.115 56.0739 155.573 55.4348 148.653 55.1042C135.072 54.4553 116.486 54.993 96.334 40.8517L95.3737 40.1669C87.3141 34.3373 82.492 28.487 80.0228 22.7656C77.5524 17.0413 77.4463 11.4673 78.7779 6.21142C79.5262 3.25774 80.7281 0.402396 82.221 -2.32555C79.0148 2.06625 76.3254 6.89771 75.0277 12.0199C73.7201 17.1811 73.8271 22.6339 76.2439 28.2344C78.662 33.8376 83.4014 39.6109 91.3983 45.395L92.3504 46.0743C112.329 60.0948 130.727 59.5627 144.337 60.213C151.229 60.5422 156.974 61.1754 161.008 64.2544C165.062 67.3488 167.312 72.8471 167.426 82.7039L167.132 82.6959L166.837 82.6891C166.724 72.8816 164.48 67.6064 160.645 64.6789C156.789 61.7363 151.248 61.0967 144.329 60.7661C130.747 60.1173 112.161 60.6549 92.0096 46.5137L91.0494 45.8288C82.9898 39.9993 78.1677 34.1489 75.6984 28.4275C73.2281 22.7032 73.122 17.1292 74.4535 11.8734C76.0403 5.61055 79.6707 -0.207484 83.7772 -5.31472C83.9188 -5.65038 84.0653 -5.98459 84.2169 -6.31702C84.2183 -6.32516 84.2197 -6.33332 84.2212 -6.34145C78.2699 -0.0449649 72.0379 7.82004 69.8315 16.5282C68.5239 21.6894 68.6314 27.1429 71.0483 32.7435C73.4664 38.3466 78.2059 44.12 86.2027 49.9041L87.1557 50.5829C107.134 64.6032 125.531 64.0718 139.142 64.7221C146.033 65.0513 151.778 65.6838 155.812 68.7626C159.866 71.8571 162.116 77.3558 162.23 87.213L161.936 87.2049L161.641 87.1981C161.528 77.3903 159.285 72.1142 155.45 69.1867C151.594 66.2441 146.053 65.6058 139.133 65.2752C125.552 64.6263 106.966 65.1632 86.8149 51.0223L85.8537 50.3379C77.7941 44.5082 72.9724 38.6568 70.5032 32.9353C68.033 27.2113 67.9265 21.6381 69.2579 16.3824C71.5799 7.21773 78.2775 -0.995391 84.4406 -7.42132C84.5026 -7.70009 84.5682 -7.97814 84.6384 -8.25517C84.8731 -9.1816 85.1524 -10.0985 85.4714 -11.0046C85.5408 -12.9406 85.8317 -14.8442 86.3038 -16.7078C86.3647 -16.948 86.4298 -17.1873 86.4966 -17.4261C86.3171 -20.0111 86.5539 -22.5453 87.1136 -25.0122C86.6 -28.4982 86.8707 -31.9012 87.7015 -35.1805C90.36 -45.6738 98.7554 -54.9194 105.516 -61.6636L105.952 -61.2768ZM75.1613 -3.69332C68.3976 3.05375 60.1051 12.209 57.4852 22.5495C56.1778 27.7106 56.2846 33.1637 58.7015 38.764C61.1196 44.3672 65.8591 50.1405 73.8558 55.9246L74.8088 56.6034C94.7876 70.6238 113.184 70.0924 126.795 70.7426C133.687 71.0719 139.431 71.705 143.465 74.784C147.519 77.8784 149.77 83.3763 149.884 93.2331L149.589 93.2255L149.295 93.2187C149.181 83.4108 146.938 78.1348 143.103 75.2073C139.247 72.2648 133.706 71.6263 126.786 71.2957C113.205 70.6469 94.6194 71.1838 74.468 57.0428L73.5069 56.3584C65.4474 50.5289 60.6261 44.678 58.1568 38.9567C55.6865 33.2323 55.5804 27.6584 56.9119 22.4025C59.5705 11.9093 67.965 2.66408 74.7258 -4.08018L75.1613 -3.69332ZM68.3773 -1.73854C61.6137 5.00849 53.3207 14.163 50.7007 24.5035C49.3931 29.6648 49.5006 35.1183 51.9175 40.7188C54.3356 46.322 59.0751 52.0953 67.0719 57.8794L68.024 58.5587C88.0027 72.579 106.4 72.0476 120.01 72.6979C126.902 73.0271 132.647 73.6591 136.681 76.7379C140.735 79.8324 142.986 85.3311 143.099 95.1884L142.805 95.1803L142.511 95.1735C142.397 85.3657 140.154 80.09 136.318 77.1625C132.463 74.2201 126.922 73.5811 120.002 73.2505C106.421 72.6017 87.8347 73.1391 67.6832 58.9981L66.723 58.3132C58.6633 52.4836 53.8407 46.6326 51.3715 40.9111C48.9013 35.1869 48.7956 29.6135 50.1271 24.3578C52.7856 13.8646 61.1802 4.61934 67.941 -2.12493L68.3773 -1.73854ZM61.3873 -0.170865C54.6236 6.57618 46.3319 15.7311 43.712 26.0715C42.4044 31.2328 42.5105 36.686 44.9274 42.2865C47.3455 47.8896 52.0851 53.663 60.0818 59.4471L61.0348 60.1259C81.0135 74.1463 99.4103 73.6148 113.021 74.2651C119.913 74.5943 125.657 75.2275 129.691 78.3064C133.745 81.4009 135.997 86.8992 136.111 96.7564L135.816 96.7488L135.521 96.7407C135.408 86.9334 133.165 81.658 129.329 78.7306C125.474 75.7879 119.932 75.1488 113.012 74.8182C99.431 74.1694 80.8454 74.7064 60.694 60.5653L59.7329 59.8809C51.6734 54.0514 46.852 48.2005 44.3828 42.4791C41.9124 36.7548 41.8063 31.1808 43.1379 25.925C45.7965 15.4318 54.191 6.18652 60.9518 -0.557718L61.3873 -0.170865ZM54.3012 1.20722C47.5374 7.95432 39.245 17.1094 36.6251 27.4501C35.3175 32.6112 35.4245 38.0641 37.8413 43.6646C40.2594 49.2678 44.9993 55.0418 52.9962 60.826L53.9479 61.5044C73.9267 75.525 92.3246 74.9937 105.935 75.644C112.827 75.9732 118.571 76.6056 122.605 79.6845C126.659 82.779 128.91 88.2778 129.024 98.1349L128.729 98.1268L128.435 98.1201C128.322 88.3124 126.079 83.0362 122.243 80.1086C118.388 77.1659 112.846 76.5269 105.926 76.1963C92.3448 75.5474 73.7594 76.0846 53.6079 61.9434L52.6468 61.259C44.5872 55.4294 39.7659 49.5787 37.2967 43.8572C34.8264 38.1329 34.7194 32.5594 36.051 27.3035C38.7095 16.8105 47.1046 7.56589 53.8654 0.821653L54.3012 1.20722ZM47.1991 2.55405C40.4354 9.30114 32.1429 18.4564 29.523 28.7969C28.2155 33.958 28.3225 39.4111 30.7393 45.0114C33.1574 50.6146 37.8972 56.3887 45.8941 62.1729L46.8472 62.8516C66.8259 76.8719 85.2227 76.3406 98.8332 76.9908C105.725 77.3201 111.469 77.9525 115.503 81.0313C119.557 84.1258 121.809 89.6241 121.922 99.4813L121.627 99.4737L121.334 99.4664C121.221 89.6586 118.977 84.383 115.141 81.4555C111.286 78.5128 105.744 77.8737 98.8242 77.5431C85.2428 76.8943 66.6572 77.4313 46.5058 63.2902L45.5447 62.6058C37.4853 56.7763 32.6638 50.9254 30.1946 45.2041C27.7243 39.4798 27.6182 33.9057 28.9497 28.6499C31.6084 18.1568 40.0034 8.9122 46.7642 2.16803L47.1991 2.55405ZM40.1403 3.98716C33.3766 10.7343 25.0841 19.8894 22.4642 30.23C21.1567 35.3911 21.2637 40.8441 23.6805 46.4445C26.0986 52.0477 30.8385 57.8218 38.8353 63.606L39.7879 64.2839C59.7667 78.3044 78.1638 77.7737 91.7745 78.4239C98.666 78.7532 104.41 79.3856 108.444 82.4645C112.498 85.5589 114.75 91.0572 114.864 100.914L114.569 100.907L114.274 100.9C114.161 91.0922 111.918 85.8161 108.083 82.8886C104.227 79.9459 98.6851 79.3068 91.7654 78.9762C78.184 78.3274 59.5984 78.8644 39.447 64.7233L38.4859 64.0389C30.4265 58.2094 25.605 52.3586 23.1358 46.6372C20.6655 40.9129 20.5594 35.3388 21.891 30.083C24.5497 19.59 32.9446 10.3453 39.7054 3.60113L40.1403 3.98716ZM33.1708 5.59354C26.4072 12.3406 18.1146 21.4959 15.4948 31.8364C14.1873 36.9975 14.2942 42.4505 16.711 48.0509C19.1291 53.654 23.8688 59.4274 31.8654 65.2115L32.8184 65.8903C52.7971 79.9107 71.1938 79.3792 84.8045 80.0295C91.6962 80.3587 97.4409 80.9919 101.475 84.0708C105.529 87.1653 107.78 92.6636 107.894 102.521L107.599 102.513L107.305 102.506C107.192 92.6981 104.948 87.4225 101.113 84.495C97.2573 81.5523 91.7156 80.9132 84.7959 80.5826C71.2146 79.9338 52.6289 80.4708 32.4776 66.3297L31.5165 65.6453C23.457 59.8157 18.6356 53.9649 16.1664 48.2435C13.696 42.5192 13.5899 36.9453 14.9215 31.6894C17.5802 21.1963 25.9746 11.9509 32.7354 5.20669L33.1708 5.59354ZM26.3256 7.43302C19.5619 14.18 11.269 23.3346 8.64897 33.6751C7.34136 38.8363 7.44882 44.2898 9.86575 49.8904C12.2838 55.4936 17.0233 61.2669 25.0201 67.051L25.9723 67.7302C45.9509 81.7506 64.3477 81.2192 77.9583 81.8694C84.8501 82.1987 90.5948 82.8318 94.6287 85.9108C98.6826 89.0052 100.934 94.5029 101.048 104.36L100.753 104.352L100.459 104.345C100.346 94.5373 98.1019 89.2616 94.2664 86.3341C90.4107 83.3917 84.8699 82.7527 77.9507 82.4221C64.3693 81.7732 45.7829 82.3107 25.6314 68.1696L24.6712 67.4848C16.6115 61.6551 11.789 55.8041 9.31972 50.0827C6.84955 44.3585 6.74385 38.785 8.07535 33.5293C10.7339 23.0362 19.1284 13.7909 25.8893 7.04663L26.3256 7.43302ZM19.627 9.54551C12.8633 16.2925 4.57038 25.4471 1.95038 35.7875C0.642776 40.9488 0.75023 46.4023 3.16716 52.0029C5.58527 57.606 10.3247 63.3794 18.3215 69.1635L19.2737 69.8427C39.2523 83.863 57.6491 83.3317 71.2597 83.9819C78.1512 84.3112 83.8957 84.9438 87.9296 88.0224C91.9837 91.1169 94.2353 96.6152 94.3489 106.472L94.0539 106.465L93.7602 106.458C93.647 96.6497 91.4033 91.3741 87.5678 88.4466C83.7122 85.5041 78.1714 84.8652 71.2521 84.5346C57.6707 83.8857 39.0843 84.4232 18.9328 70.2821L17.9726 69.5973C9.91292 63.7676 5.09036 57.9166 2.62113 52.1951C0.150927 46.471 0.0452662 40.8975 1.37676 35.6418C4.03529 25.1486 12.4298 15.9034 19.1907 9.15912L19.627 9.54551ZM85.5637 -7.7429C85.4944 -7.60754 85.4267 -7.47152 85.359 -7.33558C85.4323 -7.44002 85.5045 -7.54509 85.5784 -7.64905C85.5751 -7.68211 85.5727 -7.71521 85.5696 -7.74825C85.5677 -7.74637 85.5655 -7.74479 85.5637 -7.7429ZM85.4762 -9.08395C85.4274 -8.91525 85.3806 -8.74607 85.3347 -8.57672C85.3854 -8.67223 85.4358 -8.76792 85.4872 -8.86313C85.4835 -8.93678 85.4793 -9.01038 85.4762 -9.08395ZM87.6742 -11.4353C87.2915 -10.8284 86.9229 -10.2138 86.5677 -9.59314C86.7372 -9.76344 86.905 -9.93347 87.0727 -10.1007L87.2709 -9.92392C87.4833 -10.1978 87.6968 -10.4702 87.9122 -10.7402C87.8289 -10.9721 87.75 -11.204 87.6742 -11.4353ZM87.097 -13.4759C86.717 -12.6225 86.3679 -11.7594 86.0582 -10.8858C86.0472 -10.5485 86.0433 -10.2101 86.0463 -9.87086C86.4911 -10.648 86.9608 -11.4133 87.447 -12.1684C87.3181 -12.6055 87.2001 -13.041 87.097 -13.4759ZM91.4465 -14.0174C90.8538 -13.3516 90.2639 -12.671 89.6809 -11.9765C90.3072 -12.6289 90.9288 -13.2621 91.5386 -13.8766C91.5076 -13.9235 91.4772 -13.9706 91.4465 -14.0174ZM90.5112 -15.5319C89.6649 -14.4071 88.8511 -13.2515 88.0825 -12.0691C88.1635 -11.8038 88.2502 -11.5383 88.3412 -11.2722C89.2513 -12.3931 90.1826 -13.4793 91.1192 -14.5276C90.9081 -14.8627 90.7052 -15.1974 90.5112 -15.5319ZM89.3271 -17.7865C88.6677 -16.6651 88.0562 -15.5212 87.5029 -14.3572C87.6067 -13.8446 87.7282 -13.3304 87.8682 -12.8146C88.6095 -13.9317 89.3891 -15.0237 90.196 -16.0872C89.8823 -16.6546 89.5934 -17.2213 89.3271 -17.7865ZM86.6765 -15.7111C86.4713 -14.7844 86.3126 -13.8488 86.2057 -12.9049C86.4214 -13.4206 86.6501 -13.9322 86.8889 -14.4404C86.806 -14.8651 86.7361 -15.2887 86.6765 -15.7111ZM88.1926 -20.5799C87.7696 -19.5186 87.399 -18.4424 87.0909 -17.3523C87.1398 -16.6843 87.2169 -16.013 87.3244 -15.3386C87.8503 -16.3904 88.4212 -17.4249 89.03 -18.44C89.0025 -18.5024 88.9741 -18.5644 88.9472 -18.6268C88.6654 -19.2798 88.4142 -19.931 88.1926 -20.5799ZM87.4005 -23.4242C87.1585 -22.0136 87.0268 -20.5835 87.0253 -19.1364C87.2915 -19.9175 87.5889 -20.6903 87.9113 -21.4553C87.7122 -22.1142 87.5413 -22.7704 87.4005 -23.4242Z" fill="url(#paint0_radial_221_229)" fill-opacity="0.58"/>
<defs>
<radialGradient id="paint0_radial_221_229" cx="0" cy="0" r="1" gradientUnits="userSpaceOnUse" gradientTransform="translate(78.981 40.6409) rotate(44.6553) scale(82.2368 83.1473)">
<stop stop-color="white"/>
<stop offset="1" stop-color="#1E1E1E" stop-opacity="0"/>
<stop offset="1" stop-color="#0E0E35" stop-opacity="0"/>
<stop offset="1" stop-color="white" stop-opacity="0"/>
</radialGradient>
</defs>
</svg>
